<svg xmlns="http://www.w3.org/2000/svg" width="437.911" height="444.593" viewBox="0 0 437.911 444.593">
  <g id="Reset_password-cuate" data-name="Reset password-cuate" transform="translate(-36.71 -26.714)">
    <g id="freepik--background-complete--inject-25">
      <rect id="Rectangle_1" data-name="Rectangle 1" width="35.16" height="11.19" transform="translate(437.23 352.98) rotate(180)" fill="#ebebeb"/>
      <rect id="Rectangle_2" data-name="Rectangle 2" width="35.16" height="11.19" transform="translate(456.84 159.99) rotate(180)" fill="#ebebeb"/>
      <path id="Path_1" data-name="Path 1" d="M421.68,367.1l17.7-.3,8.75-.12h8.71l-.46.46V355.95l.5.5-17.58-.07-8.79-.09-8.79-.11.24-.23Zm0,0-.23-11.19v-.24h.24l8.79-.11,8.79-.08,17.58-.07h.5v12.14h-9.32l-8.83-.12Z" fill="#ebebeb"/>
      <path id="Path_2" data-name="Path 2" d="M129.85,339.15l17.7-.29,8.75-.12,8.71-.05-.46.46V327.96l.5.5-17.58-.07-8.79-.08-8.79-.11.24-.24Zm0,0L129.61,328v-.24h.24l8.79-.11,8.79-.08,17.58-.07h.5v12.15h-9.38l-8.83-.12Z" fill="#ebebeb"/>
      <path id="Path_3" data-name="Path 3" d="M149.46,353.26l17.7-.29,8.75-.12,8.71-.05-.46.46V342.07l.5.5L167,342.5l-8.79-.08-8.79-.11.24-.24Zm0,0-.23-11.19v-.24h.24l8.79-.11,8.79-.08,17.58-.07h.5v12.15h-9.32l-8.83-.12Z" fill="#ebebeb"/>
      <rect id="Rectangle_3" data-name="Rectangle 3" width="35.16" height="11.19" transform="translate(204.15 339.15) rotate(180)" fill="#ebebeb"/>
      <rect id="Rectangle_4" data-name="Rectangle 4" width="35.16" height="11.19" transform="translate(78.32 367.09) rotate(180)" fill="#ebebeb"/>
      <rect id="Rectangle_5" data-name="Rectangle 5" width="35.16" height="11.19" transform="translate(97.93 56.13) rotate(180)" fill="#ebebeb"/>
      <path id="Path_4" data-name="Path 4" d="M43.16,70.23l17.7-.29,8.75-.12h8.71l-.46.45V59.08l.5.5-17.58-.07L52,59.39l-8.79-.11L43.4,59Zm0,0L42.92,59v-.23h.24L52,58.7l8.79-.09,17.58-.07h.5V70.65H69.55l-8.83-.12Z" fill="#ebebeb"/>
      <path id="Path_5" data-name="Path 5" d="M402.07,56.12l17.7-.29,8.75-.12h8.71l-.46.45V44.97l.5.5-17.58-.07-8.79-.08-8.79-.11.24-.24Zm0,0-.24-11.19V44.7h.24l8.79-.11,8.79-.09,17.58-.07h.5v.5l-.05,11.19v.46h-9.32l-8.83-.12Z" fill="#ebebeb"/>
      <circle id="Ellipse_1" data-name="Ellipse 1" cx="43.09" cy="43.09" r="43.09" transform="matrix(0.958, -0.287, 0.287, 0.958, 363.292, 52.512)" fill="#ebebeb"/>
      <circle id="Ellipse_2" data-name="Ellipse 2" cx="41.11" cy="41.11" r="41.11" transform="matrix(0.476, -0.879, 0.879, 0.476, 363.174, 99.018)" fill="#dbdbdb"/>
      <circle id="Ellipse_3" data-name="Ellipse 3" cx="38.52" cy="38.52" r="38.52" transform="translate(370.235 57.983) rotate(-18.3)" fill="#fff"/>
      <path id="Path_6" data-name="Path 6" d="M456.55,74.26c-17.54,10.63-46.37,28.06-62.48,37.62a38.5,38.5,0,0,1-10.52-14.15l53.28-49.39A38.59,38.59,0,0,1,456.55,74.26Z" fill="#ebebeb" opacity="0.5"/>
      <path id="Path_7" data-name="Path 7" d="M457.39,83.78a38,38,0,0,1-2.54,12.52l-48,22.72a38,38,0,0,1-6.07-2.61C415.25,108,441.77,92.77,457.39,83.78Z" fill="#ebebeb" opacity="0.5"/>
      <rect id="Rectangle_6" data-name="Rectangle 6" width="0.74" height="5.84" transform="translate(418.53 46.72)" fill="#c7c7c7"/>
      <rect id="Rectangle_7" data-name="Rectangle 7" width="0.75" height="5.84" transform="translate(400.712 51.668) rotate(-30)" fill="#c7c7c7"/>
      <rect id="Rectangle_8" data-name="Rectangle 8" width="0.74" height="5.84" transform="translate(387.769 64.876) rotate(-60)" fill="#c7c7c7"/>
      <rect id="Rectangle_9" data-name="Rectangle 9" width="5.84" height="0.74" transform="translate(383.18 82.06)" fill="#c7c7c7"/>
      <rect id="Rectangle_10" data-name="Rectangle 10" width="5.86" height="0.743" transform="translate(389.34 100.419) rotate(-29.887)" fill="#c7c7c7"/>
      <rect id="Rectangle_11" data-name="Rectangle 11" width="5.84" height="0.74" transform="translate(400.733 113.196) rotate(-60.04)" fill="#c7c7c7"/>
      <rect id="Rectangle_12" data-name="Rectangle 12" width="0.74" height="5.84" transform="translate(418.53 112.32)" fill="#c7c7c7"/>
      <rect id="Rectangle_13" data-name="Rectangle 13" width="0.74" height="5.84" transform="translate(433.522 108.497) rotate(-30)" fill="#c7c7c7"/>
      <rect id="Rectangle_14" data-name="Rectangle 14" width="0.74" height="5.84" transform="translate(444.628 97.721) rotate(-59.99)" fill="#c7c7c7"/>
      <rect id="Rectangle_15" data-name="Rectangle 15" width="5.84" height="0.74" transform="translate(448.79 82.06)" fill="#c7c7c7"/>
      <rect id="Rectangle_16" data-name="Rectangle 16" width="5.84" height="0.74" transform="translate(444.605 67.206) rotate(-30.01)" fill="#c7c7c7"/>
      <rect id="Rectangle_17" data-name="Rectangle 17" width="5.84" height="0.74" transform="translate(433.516 56.361) rotate(-60.03)" fill="#c7c7c7"/>
      <path id="Path_8" data-name="Path 8" d="M419.46,49.36l1.27,35.68-3.65-.05,1.39-35.64Z" fill="#c7c7c7"/>
      <path id="Path_9" data-name="Path 9" d="M441.69,70,417.68,85.31l-1.74-3.2,25.27-12.99Z" fill="#a6a6a6"/>
      <path id="Path_10" data-name="Path 10" d="M420.15,82.44a1.24,1.24,0,1,1-.363-.887A1.25,1.25,0,0,1,420.15,82.44Z" fill="#c7c7c7"/>
    </g>
    <g id="freepik--Table--inject-25">
      <path id="Path_11" data-name="Path 11" d="M36.71,462.77l53.32-.25,53.32-.08L250,462.27l106.64.16,53.33.09,53.32.25-53.32.24-53.33.09L250,463.27l-106.65-.17-53.32-.09Z" fill="#263238"/>
    </g>
    <g id="freepik--Plant--inject-25">
      <path id="Path_12" data-name="Path 12" d="M71,335.65s.92,0,2,4c.57,2.19-2.79,20.76-2.46,40.48.25,14.8,1,31,2.11,40.25,0,0,1.08,2.17,4.63,1.51a230.873,230.873,0,0,1-4.63-42.29c-.15-13.87,2.66-29.71,2.58-40.5a9.38,9.38,0,0,1,.91-3.76Z" fill="#455a64"/>
      <path id="Path_13" data-name="Path 13" d="M74.28,330.51s-4.15-3.09-4-7.81,1.8-8.38,4.11-10.61S77.51,310,77.51,310s2.59-.34,4.16,5.09,3.12,10,1.25,12.8A6.652,6.652,0,0,1,74.28,330.51Z" fill="#a6cdca"/>
      <path id="Path_14" data-name="Path 14" d="M74.28,330.51s-4.15-3.09-4-7.81,1.8-8.38,4.11-10.61S77.51,310,77.51,310s2.59-.34,4.16,5.09,3.12,10,1.25,12.8A6.652,6.652,0,0,1,74.28,330.51Z" opacity="0.3"/>
      <path id="Path_15" data-name="Path 15" d="M67.37,323.45s-1.78-4.6-.18-8.09,2.79-3.5,3.14-3.59,2.62.57,3.46,3.92.82,5.72.28,7.11-2.74,2.42-2.74,2.42a4.46,4.46,0,0,1-3.96-1.77Z" fill="#a6cdca"/>
      <path id="Path_16" data-name="Path 16" d="M67.37,323.45s-1.78-4.6-.18-8.09,2.79-3.5,3.14-3.59,2.62.57,3.46,3.92.82,5.72.28,7.11-2.74,2.42-2.74,2.42a4.46,4.46,0,0,1-3.96-1.77Z" opacity="0.2"/>
      <path id="Path_17" data-name="Path 17" d="M67.57,313.91s-1.88.49-2.43,3.71a21.83,21.83,0,0,0,.35,7.67c.2.69.74,7.3,4.19,9.93s4.12,1,4.12,1a7.11,7.11,0,0,0,3-5.56,25.83,25.83,0,0,0-1-9.9c-.94-2.83-1.31-4.42-3.24-5.44S68.25,313.55,67.57,313.91Z" fill="#a6cdca"/>
      <path id="Path_18" data-name="Path 18" d="M67.57,313.91s-1.88.49-2.43,3.71a21.83,21.83,0,0,0,.35,7.67c.2.69.74,7.3,4.19,9.93s4.12,1,4.12,1a7.11,7.11,0,0,0,3-5.56,25.83,25.83,0,0,0-1-9.9c-.94-2.83-1.31-4.42-3.24-5.44S68.25,313.55,67.57,313.91Z" opacity="0.1"/>
      <path id="Path_19" data-name="Path 19" d="M76.28,337s-4.16.66-5.36-5.3.22-7.92.5-8.76-.07-1.77.59-2.79,1.08-.8,1.91-2.17,1.09-3.39,1.77-4a2.8,2.8,0,0,1,2.27-.82,23.4,23.4,0,0,1,3.54,1.47c1,.38.71,2.29,1.37,3.11s2.58,3.19,1.78,7.73-1.36,7.58-3.37,9.29S77.65,337,76.28,337Z" fill="#a6cdca"/>
      <path id="Path_20" data-name="Path 20" d="M70.39,336.7c-.72.11-2.45.17-4.55-2.39-2.57-3.13-2.31-7.62-2.48-8.77A40.791,40.791,0,0,0,62.27,319c-.63-1.71-.47-2.69-.28-2.81s1.75.46,2.58,2.48,2.6,3.89,2.89,6.86.15,7.23,1.79,9,3.43,1.33,3,2.15a15.54,15.54,0,0,1-1.86.02Z" fill="#a6cdca"/>
      <path id="Path_21" data-name="Path 21" d="M71.82,383.8s-2.48-8,5.26-22.61,14.76-19,14.76-19-.07,8.13-6.87,21.63S72.86,383.2,71.82,383.8Z" fill="#455a64"/>
      <path id="Path_22" data-name="Path 22" d="M88.05,348.45c.23-.42.32,0,.1.4-2.75,5.18-12.24,20.8-15.3,31.57-.13.45-.5,0-.35-.46C78.5,361.8,85.26,353.72,88.05,348.45Z" fill="#37474f"/>
      <path id="Path_23" data-name="Path 23" d="M91.3,370.58s.52-10.19-2.27-12.77-3.39-1.91-4.21-2.11a7.73,7.73,0,0,0-2.88.55s4.22.95,5.18,3.82Z" fill="#a6cdca"/>
      <path id="Path_24" data-name="Path 24" d="M91.3,370.58s.52-10.19-2.27-12.77-3.39-1.91-4.21-2.11a7.73,7.73,0,0,0-2.88.55s4.22.95,5.18,3.82Z" opacity="0.2"/>
      <path id="Path_25" data-name="Path 25" d="M95.75,373.68a6.69,6.69,0,0,1,.9,4.63c-2.27,22-7.87,33.7-17.05,48,0,0-1.81,4.62.45,3.58,0,0,14.48-15.3,18.25-50.53,0,0,.17-4,2.78-5.7C101.08,373.67,96.18,372.5,95.75,373.68Z" fill="#455a64"/>
      <path id="Path_26" data-name="Path 26" d="M95,351.72a2.45,2.45,0,0,1,2.56,2.14c.54,2.36,4.81,15.16,3,18.84S98,374.8,96.38,375c-1.77.26-5.6-2.31-6.25-4.4s-1.77-6.38-1.43-8.83S88.35,351.8,95,351.72Z" fill="#a6cdca"/>
      <path id="Path_27" data-name="Path 27" d="M95,351.72a2.45,2.45,0,0,1,2.56,2.14c.54,2.36,4.81,15.16,3,18.84S98,374.8,96.38,375c-1.77.26-5.6-2.31-6.25-4.4s-1.77-6.38-1.43-8.83S88.35,351.8,95,351.72Z" opacity="0.1"/>
      <path id="Path_28" data-name="Path 28" d="M106.17,350.47s2.11,1.78,2.19,3.8,1.15,11-1.17,15.41-4.26,5.63-7.51,5.61,2.47-22.6,2.47-22.6S105,349.21,106.17,350.47Z" fill="#a6cdca"/>
      <path id="Path_29" data-name="Path 29" d="M106.17,350.47s2.11,1.78,2.19,3.8,1.15,11-1.17,15.41-4.26,5.63-7.51,5.61,2.47-22.6,2.47-22.6S105,349.21,106.17,350.47Z" opacity="0.2"/>
      <path id="Path_30" data-name="Path 30" d="M101.6,351.75s3.19.15,4.36,2.52a19.23,19.23,0,0,1,1.69,10.16c-.54,3.43-1.27,11.83-8.63,10.83-5.56-.76-6.78-8.26-6.51-14.46.19-4.55,3-5.25,4.58-6.88a7,7,0,0,1,4.51-2.17Z" fill="#a6cdca"/>
      <path id="Path_31" data-name="Path 31" d="M98.94,375.18s-6.13.88-8.82-2.85-1.79-6.38-2.24-9a17.16,17.16,0,0,0-1.45-4.57s1.68.81,3,5.85S95,374.72,98.94,375.18Z" fill="#a6cdca"/>
      <path id="Path_32" data-name="Path 32" d="M80.12,429.21s2.66-11.29,14-21.94c10.81-10.2,17.61-10.51,19.55-11.52l.23-.14c1.57-1.13-7.18,11-14.77,17.88S85.34,426.81,80.12,429.21Z" fill="#455a64"/>
      <path id="Path_33" data-name="Path 33" d="M105.54,402.35C96,408.47,89.17,416.2,83.29,424.84c-.27.4-.55,1.22-.28.83a100.44,100.44,0,0,1,22.3-22.83C105.69,402.55,105.94,402.1,105.54,402.35Z" fill="#37474f"/>
      <path id="Path_34" data-name="Path 34" d="M57.81,355.54s4.87-1.73,6.12-6.29.74-8.54-.81-11.36-2.35-2.95-2.35-2.95-2.37-1.09-5.47,3.64-5.93,8.65-5,11.86C52.2,356.58,57.81,355.54,57.81,355.54Z" fill="#a6cdca"/>
      <path id="Path_35" data-name="Path 35" d="M57.81,355.54s4.87-1.73,6.12-6.29.74-8.54-.81-11.36-2.35-2.95-2.35-2.95-2.37-1.09-5.47,3.64-5.93,8.65-5,11.86C52.2,356.58,57.81,355.54,57.81,355.54Z" opacity="0.3"/>
      <path id="Path_36" data-name="Path 36" d="M59.53,360.31s-.92,0-2,4c-1,3.84-5.43,30.78,4.83,53.35,0,0,.94,3.86-2.61,3.21,0,0-10.93-26.28-4.45-57.11a5.62,5.62,0,0,0-.91-3.76Z" fill="#455a64"/>
      <path id="Path_37" data-name="Path 37" d="M66.49,350.83S69.55,347,69,343.15s-1.64-4.17-2-4.36-2.67-.23-4.46,2.73-2.46,5.23-2.36,6.71,1.91,3.12,1.91,3.12a4.5,4.5,0,0,0,4.4-.52Z" fill="#a6cdca"/>
      <path id="Path_38" data-name="Path 38" d="M66.49,350.83S69.55,347,69,343.15s-1.64-4.17-2-4.36-2.67-.23-4.46,2.73-2.46,5.23-2.36,6.71,1.91,3.12,1.91,3.12a4.5,4.5,0,0,0,4.4-.52Z" opacity="0.2"/>
      <path id="Path_39" data-name="Path 39" d="M69.11,341.65s1.65,1,1.23,4.26a21.82,21.82,0,0,1-2.6,7.22c-.38.61-2.85,6.76-6.93,8.26s-4.22-.26-4.22-.26a7.12,7.12,0,0,1-1.27-6.21,25.67,25.67,0,0,1,3.88-9.17c1.73-2.43,2.56-3.84,4.7-4.24S68.57,341.1,69.11,341.65Z" fill="#a6cdca"/>
      <path id="Path_40" data-name="Path 40" d="M69.11,341.65s1.65,1,1.23,4.26a21.82,21.82,0,0,1-2.6,7.22c-.38.61-2.85,6.76-6.93,8.26s-4.22-.26-4.22-.26a7.12,7.12,0,0,1-1.27-6.21,25.67,25.67,0,0,1,3.88-9.17c1.73-2.43,2.56-3.84,4.7-4.24S68.57,341.1,69.11,341.65Z" opacity="0.1"/>
      <path id="Path_41" data-name="Path 41" d="M54,361.14s3.78,1.86,6.68-3.49,2.12-7.63,2.11-8.52.58-1.66.26-2.84-.81-1.08-1.2-2.63,0-3.57-.52-4.31a2.79,2.79,0,0,0-1.93-1.46,21.876,21.876,0,0,0-3.81.37c-1.08.06-1.35,2-2.23,2.57s-3.41,2.29-4,6.85-.93,7.65.49,9.88S52.67,360.76,54,361.14Z" fill="#a6cdca"/>
      <path id="Path_42" data-name="Path 42" d="M59.71,362.59c.65.32,2.28.89,5.05-.94,3.38-2.23,4.45-6.6,4.94-7.65a42,42,0,0,1,3-6c1.1-1.45,1.23-2.43,1.09-2.6s-1.81-.08-3.19,1.62S67,350,65.8,352.74s-2.27,6.87-4.36,8.08-3.66.26-3.5,1.17a14,14,0,0,0,1.77.6Z" fill="#a6cdca"/>
      <path id="Path_43" data-name="Path 43" d="M56.74,406.2s2.48-8-5.27-22.61-14.76-19-14.76-19,.08,8.13,6.88,21.63S55.7,405.6,56.74,406.2Z" fill="#455a64"/>
      <path id="Path_44" data-name="Path 44" d="M40.5,370.84c-.22-.41-.31,0-.09.41,2.74,5.18,12.23,20.79,15.29,31.57.13.45.5,0,.36-.46C50.05,384.2,43.29,376.11,40.5,370.84Z" fill="#37474f"/>
      <path id="Path_45" data-name="Path 45" d="M42.59,462.77h70.22l-3.1-33.46-.68-7.38H46.37l-.68,7.38Z" fill="#f0b976"/>
      <path id="Path_46" data-name="Path 46" d="M45.9,426.95l63.81,2.36-.68-7.38H46.37Z" opacity="0.1"/>
      <rect id="Rectangle_18" data-name="Rectangle 18" width="70.69" height="8.89" transform="translate(113.04 424.54) rotate(180)" fill="#f0b976"/>
    </g>
    <g id="freepik--Character--inject-25">
      <path id="Path_163" data-name="Path 163" d="M359,331.71c-2.61,31.53-23,100.22-37.23,111.94-9.18,7.54-48.53,15.91-69.15,15.94-8.46,0-14.74-57.95-2-58.78,21.89-1.42,37.38-3.42,43.21-6.43,4.54-2.35,15.94-24.21,46.82-65.87C352.05,313,360.44,314,359,331.71Z" fill="#eb9481"/>
      <path id="Path_164" data-name="Path 164" d="M263.76,458.37c-1.07.27-16.24,4.06-25.21,4.61-6.7.41-26,1.08-27.19-6.24-.81-5,10.5-6.73,18.46-8.13,4.2-.74,9.83-3.69,9.26-6.42-1-4.75-11.87-2.64-19.21-.32-14.21,4.48-33.9,13.87-40.14,5.77-2.36-3.06,2-6.69,7.89-9.89-9.13,3.22-18.58,5.42-21.33,2.12-1.59-1.88-1.23-3.89.35-5.93-2.65.25-4.8-.4-6-2.35-2-3.3.18-7,3.95-10.51a3.2,3.2,0,0,1-2-2.08C159,409.37,192,391.45,202,391.34c29.53-.38,58.81,8.75,58.81,8.75C269.84,411.36,263.78,458.35,263.76,458.37Z" fill="#eb9481"/>
      <path id="Path_165" data-name="Path 165" d="M228.32,423.3a48.851,48.851,0,0,0-20.31,3c-8.16,3.09-14.11,7.52-21.32,11.72a.17.17,0,0,0,.17.29c3.43-2,17.42-9.23,21-10.79a46.5,46.5,0,0,1,20.49-4.11C228.4,423.43,228.4,423.31,228.32,423.3Z" fill="#263238"/>
      <path id="Path_166" data-name="Path 166" d="M225.77,410.23c-7.82.37-15.83.71-23.45,2.66-8.34,2.13-15.59,7-22.7,11.73q-6.39,4.23-12.6,8.73c-.17.13,0,.42.17.3q10.84-7.31,22.12-13.95A61.31,61.31,0,0,1,212,411.65c4.58-.66,9.2-1,13.81-1.28C225.85,410.37,225.86,410.23,225.77,410.23Z" fill="#263238"/>
      <path id="Path_167" data-name="Path 167" d="M220.23,398.06c-7.49-.13-14-.28-21.22,2.14-9.53,3.19-19.55,9.93-23.07,12.33-3.9,2.64-7.7,5.42-11.46,8.25-.15.12.05.39.21.27a244,244,0,0,1,26.69-16.73,48.678,48.678,0,0,1,14-5.2,86.935,86.935,0,0,1,14.86-1Z" fill="#263238"/>
      <path id="Path_168" data-name="Path 168" d="M347.91,404.74,308.38,366s23.54-33.42,39.42-48c8.9-8.19,15.37-1.38,15.32,9.55C362.94,365.81,347.91,404.74,347.91,404.74Z" fill="#ffc727"/>
      <path id="Path_169" data-name="Path 169" d="M347.91,404.74,308.38,366s23.54-33.42,39.42-48c8.9-8.19,15.37-1.38,15.32,9.55C362.94,365.81,347.91,404.74,347.91,404.74Z" fill="#f0b976"/>
      <path id="Path_170" data-name="Path 170" d="M350.41,352.72a35.883,35.883,0,0,1,3.49-3.06c-.8.65-1.57,1.35-2.34,2Zm12.47-17.36c-.84-.37-1.72-.7-2.62-1v.19a.13.13,0,0,1,0,.06,2.192,2.192,0,0,1,.05.25c.11.62.22,1.23.32,1.85a44.655,44.655,0,0,0,1.55,7.17h0q-.14,1.37-.3,2.73a24.449,24.449,0,0,1-2.18-7.48A80.641,80.641,0,0,1,352.25,369a.49.49,0,0,1,.1.19c3.08,10.95-.34,20-9.29,26.63a1.089,1.089,0,0,1-.08.31c-.08.28-.49.15-.47-.12.77-9.44-1.63-20.31,8.15-25.39a147.321,147.321,0,0,0,5.22-17.93c-4.33,8.45-10.29,14-20.2,17.26a.33.33,0,0,1-.6,0,.18.18,0,0,1,0-.17h0A33.59,33.59,0,0,1,344,351.26c3.61-3.74,8.06-4.51,13-4.13a95.049,95.049,0,0,0,.11-32.29C344,331.25,335.6,350.58,326.85,369.6v.11c.22,4.79,1.6,10.14.56,15l-1.32-1.29c.72-3.93,0-8.16-.28-12.14a80.08,80.08,0,0,1-1.34,10.55l-.25-.25a97.274,97.274,0,0,0,1.31-10.05c-1.32,2.52-2.58,5.06-3.77,7.64l-.09-.08c1.25-2.6,2.55-5.17,3.88-7.73l.06-.5c-.29.39-.58.76-.88,1.13q-2.08,3.12-3.81,6.36l-.25-.24c.85-1.55,1.76-3.08,2.72-4.56-1.15,1.29-2.34,2.53-3.45,3.85l-1.15-1.14a57.191,57.191,0,0,1,7-6.75.22.22,0,0,0,0-.08.11.11,0,0,1,.17-.07l.62-.54q2.49-7.05,5.44-14c-3.32,3.53-6.67,7.37-10.89,9.59-2.69,1.41-7.38,2.43-11.28,3.07l-.76-.74a45.15,45.15,0,0,0,10-2.9c4.55-2.1,8.86-6.21,12.6-9.84a56.085,56.085,0,0,1-7.14,5v-.05c2.57-1.73,5-3.59,7.39-5.56-5,1.7-10.15,2.87-14.85,5.31a60.01,60.01,0,0,0-6,3.58l.3-.41a55.234,55.234,0,0,1,5.61-3.42,75.2,75.2,0,0,1,15.37-5.41,26,26,0,0,0-15.19,2.86,26.784,26.784,0,0,0-2.69,1.73l.45-.6h0a22.448,22.448,0,0,1,3.09-1.77A25.17,25.17,0,0,1,332.41,353l.25-.21c-6.08-1.53-11.28-1.15-16.21,2.15.62-.84,1.29-1.73,2-2.64,4.08-2.23,8.78-2.69,14.56.22h0a171.351,171.351,0,0,1,22.6-38.12,5.77,5.77,0,0,1,2.77.91,100.462,100.462,0,0,1,1.54,17.44c.05.22.09.45.14.67a14.232,14.232,0,0,1,2.88.45C362.94,334.37,362.91,334.87,362.88,335.36Zm-11.35,35.77v-.14l-.2.14h-.06a3.727,3.727,0,0,0-.47.34,1,1,0,0,0-.18.13c-4.43,3.32-6.43,7.76-6.62,13.47-.05,1.38,0,2.75-.08,4.1a27.3,27.3,0,0,1-.58,5.75h0c3-3.77,6.56-6.55,8-11.42a26.31,26.31,0,0,0,.19-12.37Zm-15.26-2.83c2.66-5,4.17-10.57,8.41-14.64a20.77,20.77,0,0,1,9.63-5.29c-5.38.45-8.91,2.22-12.52,7.65C339.18,359.94,337.79,364,336.27,368.3Zm0,.48a70.225,70.225,0,0,1,9.4-11.58c1.52-1.56,3.12-3,4.75-4.48-1.61,1.57-3.11,3.24-4.54,4.7a91.634,91.634,0,0,0-9,10.82c3.52-2.92,7.47-5.24,10.68-8.58a77.179,77.179,0,0,0,8.7-11.4H356a20.992,20.992,0,0,0-2.09,1.39,18.55,18.55,0,0,1,1.82-1.34,21.27,21.27,0,0,0-11.58,6.29c-3.87,4.11-5.2,9.58-8,14.31Zm20.39-20.53h-.18a82.472,82.472,0,0,1-8.42,11.32,66.779,66.779,0,0,1-11.43,9.06l-.15.21c3.58-2.06,7.54-3.73,10.7-6.33,4.54-3.72,6.82-9.18,9.47-14.26Zm-33.39,11.56c-4.2,3.1-9.38,5-14.49,6.59l-.39-.38h0c5.12-1.66,10.29-2.93,14.84-6.19Zm28.42,11-.15.34c-.11.23-.22.46-.32.7-.23,3.89-.36,7.73-1.76,11.45a55.07,55.07,0,0,1-6.1,11.4,2.3,2.3,0,0,1-.06.28,1.431,1.431,0,0,1,0,.22c0,.07-.12.05-.11,0a1.944,1.944,0,0,0,0-.24.09.09,0,0,1-.11-.1.06.06,0,0,1,0-.07c.07-.26.16-.52.23-.79.16-1.58.35-3.16.6-4.73,1-6.3,2.89-12.39,6.7-17.57.21-.31.44-.61.68-.91v-.64h.05v.58c.18-.23.35-.46.54-.69h.06c-.21.25-.41.51-.61.76v.43l.06-.11c.08-.14.16-.29.24-.42s.09,0,.05.09Zm-.53,1.16c-3.11,7-5,14.36-7.56,21.55a2.635,2.635,0,0,1-.12.61,66,66,0,0,0,5.74-10.91A38.671,38.671,0,0,0,351.15,372Zm.05-.75v-.33c-.17.22-.34.45-.49.67A29.49,29.49,0,0,0,345.64,382c-.81,3.23-1.19,6.54-1.74,9.81,1-3.36,2.16-6.7,3.26-10.05a57.29,57.29,0,0,1,4-10.45.318.318,0,0,0,.04-.11Zm9.1-36.61h-.08a.14.14,0,0,1,0,.06l.11.23q1.06,2.28,2.28,4.46a2.452,2.452,0,0,0,0,.27c-.75-1.39-1.46-2.79-2.12-4.22.63,1.87,1.27,3.76,2,5.62h0l-.06.71a47.518,47.518,0,0,1-1.76-5c-.23-.74-.43-1.48-.61-2.21l-.66-.28h0l.65.26v-.1c0-.11-.09-.21-.13-.31s0-.06.05,0h0s.07-.06.08,0,.13.36.19.54h.09a23.724,23.724,0,0,1,2.57,1.29.49.49,0,0,1,0,.12,20.558,20.558,0,0,0-2.61-1.46Z" opacity="0.1"/>
      <path id="Path_171" data-name="Path 171" d="M312.18,369.72l35.73,35s15-38.93,15.21-77.18c0-4.09-.87-7.6-2.46-10Z" opacity="0.1"/>
      <path id="Path_172" data-name="Path 172" d="M315.85,361.15c6.57,5.45,24,20.76,34,32.19.06.07-.17.32-.24.27-9.76-8.25-28-26.08-34.1-32.08C315.39,361.42,315.73,361,315.85,361.15Z" fill="#263238"/>
      <path id="Path_173" data-name="Path 173" d="M453.32,463.57l-136-.35L325.55,412s-11.76-14.29-9.54-29.8c2.44-17,33-60,35.61-62.47C362,310,372.86,307.4,382.73,312.5,416.66,330,453.32,463.57,453.32,463.57Z" fill="#f0b976"/>
      <path id="Path_174" data-name="Path 174" d="M402.86,402.17a36.448,36.448,0,0,1,.34,4.63c0-1-.14-2.06-.22-3.08Zm9.68,61.3h-1.66a19.537,19.537,0,0,0-2.13-1.34c-4.93-2.65-8.88-1.86-13.69-1.57h0l-.9.05.54.57v.06c.7.75,1.34,1.49,2,2.19h-1.43a10.9,10.9,0,0,1-2-3.54c5.16-.92,9.73-1.51,14.61.71a21.709,21.709,0,0,1,4.66,2.87Zm4.08,0h-1.55a70.064,70.064,0,0,1-3.57-10.16h-.09c-4.29-1.91-9.12-4.55-11.28-9s-1.34-10.8-.84-15.59a.25.25,0,0,1,.25-.24.23.23,0,0,1,.2.1c7.49,6.29,13.75,13.27,12.17,23.41a74.5,74.5,0,0,0,4.71,11.49ZM410.88,452l.3.14a.27.27,0,0,1,0-.24.34.34,0,0,1,.15-.14c-.13-5.12-.41-9.21-3.83-13.6-2.18-2.78-4.56-5.43-7-8l-.38-.4-.2-.22-.06-.06-.09-.1v.12a.762.762,0,0,1,0,.15c.21,4.19-.17,8.49,1,12.54C402.16,446.94,406.46,450,410.88,452Zm6.29-90.23c-1.67,4.71-3.49,9.3-3.62,14.5h0c0-5.09,1.58-10.23,3.32-15.15a4.334,4.334,0,0,1,.3.61Zm29.31,78.82c-1.08.34-2.17.63-3.25.89h-.06a51.929,51.929,0,0,1-9,20.53,13.656,13.656,0,0,1-.06,1.55h-1.75a107.292,107.292,0,0,0-1.7-26.33c-.35-1.82-.76-3.62-1.19-5.41a.63.63,0,0,1-.29-.06,101.527,101.527,0,0,1-16.1-9.91l-.62-.3c-7.9,9.28-20,3.23-28.73-1.3h0a.46.46,0,0,1,0-.86h.07l.14-.06c5.2-2.23,9.9-5.14,15.77-4.37a23.7,23.7,0,0,1,8.46,3,80.76,80.76,0,0,1-19.32-23.95.529.529,0,0,1-.21,0c-10.6-4.14-15.77-12.32-15.67-23.45l-.2-.25c-.17-.24.18-.49.38-.31,7.08,6.3,17.2,10.92,15.36,21.8a149.275,149.275,0,0,0,11.18,15c-4.14-8.55-5-16.67-1.62-26.52a.33.33,0,0,1,.35-.48.24.24,0,0,1,.17.06h0a33.51,33.51,0,0,1,9.39,18.24c.81,5.14-1.26,9.15-4.55,12.9a95.081,95.081,0,0,0,25.72,19.53c-5.21-20.35-15.6-38.68-25.52-57.12a.126.126,0,0,1-.1-.05c-4.63-3.15-10.81-5.52-13.77-10.59-3.2-5.49-2.71-13.09-2.67-19.2,0,0,.29-.17.3-.1,5,3.83,10.36,8.1,13.51,13.64,2.73,4.8,3.1,10.16,3.45,15.53l.06.06a.11.11,0,0,1,0,.18,4.407,4.407,0,0,0,.05.81q4.14,6.24,7.89,12.77c-.82-4.79-1.87-9.77-1.1-14.47.55-3.38,3.06-8.51,5-12.17l.45,1a45.358,45.358,0,0,0-3.8,9.9c-1.06,4.9-.37,10.82.27,16a56.634,56.634,0,0,1,.28-8.74h.06a89.186,89.186,0,0,0,0,9.25c1.65-5,3.82-9.83,4.71-15.05a59.1,59.1,0,0,0,.74-6.42l.15.34a50.15,50.15,0,0,1-.62,6.12,74.931,74.931,0,0,1-4.94,15.54,26,26,0,0,0,6.87-13.85,25.432,25.432,0,0,0,.21-4.36c.09.21.19.43.28.65a24.276,24.276,0,0,1-.49,4.8,25.23,25.23,0,0,1-6.89,12.87c0,.11,0,.21,0,.32,5.45-4.39,8.34-9.34,8.07-16.34.37.87.74,1.73,1.1,2.61-.06,5.7-2.25,10.76-9.15,14.17h0c12.54,22.42,21,47.08,20.71,72a91.109,91.109,0,0,0,8.74-31c.49,1.48,1,2.93,1.41,4.34q-.3,2.94-.84,5.84c.45-1.53.84-3,1.26-4.52.13.4.25.8.37,1.19-.34,1.05-.7,2.09-1.12,3.13v.05c-.12.31-.25.61-.38.91l.14-.05c.82-.26,1.62-.52,2.41-.81a5.547,5.547,0,0,0,.23.84Zm-58.27-96.21a70.77,70.77,0,0,1,14.28,23.76c-.77-3.87-1.21-7.75-3.33-11.44-2.85-4.99-6.81-8.63-10.95-12.36Zm14.63,27.06c-3.85-3.49-8-7.07-10.52-11.62-2.61-4.82-3.71-10.68-4.95-16,.56,5.45,1.05,13.19,3.71,17.94,2.53,4.46,7.54,6.87,11.76,9.64Zm-10.49-12.16c2.42,4.67,6.63,8.18,10.46,11.78a255.722,255.722,0,0,0-15.2-26.95c1.39,5.02,2.31,10.44,4.74,15.13Zm10.95,12.24c-.13-.45-.26-.91-.37-1.37a80.24,80.24,0,0,0-14.77-25.4,199.841,199.841,0,0,1,14.78,26.43ZM387.48,392l.13.06a1.932,1.932,0,0,0,0-.24.2.2,0,0,0,0-.07v-.05a5.29,5.29,0,0,0,0-.56,1.848,1.848,0,0,0,0-.23c0-5.56-2.32-9.83-6.77-13.42-1.09-.88-2.19-1.7-3.25-2.54A28.458,28.458,0,0,1,373.4,371h0c1.23,4.65,1.29,9.18,4.31,13.24a26.44,26.44,0,0,0,9.77,7.76Zm11.45-10.49c2.42,5.16,5.93,9.7,6.62,15.54A20.65,20.65,0,0,1,404,407.91c2.88-4.57,3.59-8.45,1.43-14.6-1.58-4.45-3.98-8-6.5-11.81Zm3.84,28.21a82.292,82.292,0,0,1-4-13.54,67.109,67.109,0,0,1-.36-14.59,1.089,1.089,0,0,0-.07-.24c-.51,4.1-1.56,8.26-1.39,12.35.23,5.88,3.22,11,5.68,16.16Zm.4-.65a21.31,21.31,0,0,0,1.95-13c-.95-5.57-4.51-9.93-6.58-15v.21a70.838,70.838,0,0,1,3.59,14.48c.32,2.15.53,4.31.72,6.48-.3-2.22-.72-4.43-1-6.45A92.514,92.514,0,0,0,398.6,382c.2,4.57-.32,9.13.42,13.7a77.39,77.39,0,0,0,3.86,13.81l.17-.24a20.752,20.752,0,0,0,.15-2.51,18.908,18.908,0,0,1-.03,2.3Zm8.43,12.05-.18-.09h-.05l-.21-.11c-.55-.27-1.09-.55-1.62-.83-3.22-1.7-6.37-3.41-10.14-3.9-4.43-.57-8.13,1.24-12,2.79h0c-.72.28-1.44.56-2.18.81l.11.06.18.09,2.35,1.27c3.48,1.88,7.07,3.7,11,4,4.9.37,8.8-1.49,12.74-4.1ZM388.44,392.4h0L388,392c.07.29.15.57.22.85,0,0-.06.07-.07,0-.07-.32-.15-.64-.24-.95l-.26-.23-.06-.05.05.12a4.178,4.178,0,0,1,.19.44c0,.1-.1.15-.15.06l-.18-.32-.36-.68c-3-2.53-5.95-4.94-8.09-8.3a55.518,55.518,0,0,1-5.43-11.73l-.19-.22-.15-.17c0-.05,0-.12.08-.08l.18.17a.09.09,0,0,1,.15,0h.07l.48.66q1.75,1.61,3.41,3.32c4.44,4.6,8.18,9.8,10,16,.12.35.22.71.31,1.07Zm-1.39-1.2c-3.68-6.67-8.44-12.65-12.65-19l-.42-.46a65.922,65.922,0,0,0,5.26,11.14,38.851,38.851,0,0,0,7.81,8.31Zm.82.71c-.07-.26-.14-.51-.23-.77a29.509,29.509,0,0,0-5.3-10.39c-2.09-2.6-4.5-4.89-6.78-7.31,2.06,2.85,4,5.77,6.06,8.65,2.12,3.06,4.41,6.09,5.91,9.52l.1.09Zm24.22,29.17c.05,0,0,.09,0,.08l-.55-.18h-.09a22.72,22.72,0,0,1-12.49,3.06,25.721,25.721,0,0,1-6.89-1.39c-1.34-.45-2.84-.91-4.23-1.51a12.31,12.31,0,0,1-2.35-1.27l-.16-.1h0l-1.07.34c-.13,0-.2-.16-.07-.2l.73-.24a.07.07,0,0,1,.05,0H385l-.15-.11h0l.23.12c.71-.23,1.43-.46,2.16-.67h0a32.319,32.319,0,0,1,10.55-1.59,38.939,38.939,0,0,1,11.62,2.7c.7.25,1.39.53,2.06.81l.63-.36h0l-.6.36.1.05.33.07v.07Zm-25.74-1.58a73,73,0,0,1,24.3,1.19c-4.13-1.36-8.4-2.83-12.74-3a34,34,0,0,0-11.56,1.8Zm25.1,1.46h-.06l-.23-.05a83,83,0,0,0-25.6-1.15h-.11c8.17,4.41,17.61,5.79,25.92,1.23Zm.33,31.76-.54-.46v.59a.1.1,0,0,1-.19,0,7.439,7.439,0,0,0-.09-.81h0a.929.929,0,0,1,0,.13s-.05.06-.06,0l-.06-.2h0c-3.1-2.68-6.14-5.62-8-9.33-2-4-2.55-8.49-2.95-12.89l-.11-.13a1.948,1.948,0,0,1-.13-.16c-.04-.06,0-.09.07-.06l.05.07.1.11a.572.572,0,0,0,0-.13h0v.22l.34.38-.16-.29-.26-.49h.05c.2.31.4.62.59.93.09.13.17.27.26.41,5.48,6,9.67,13.06,10.39,21.35v.15l.65.59c.21-.04.12.08.05.01Zm-.8-.92a36.29,36.29,0,0,0-3.32-11.38,43.93,43.93,0,0,0-6.34-9.06c1.48,2.49,2.76,5.08,4.05,7.69h0c-1.46-2.89-3.12-5.68-4.69-8.51-.2-.25-.41-.49-.61-.73.6,4,1.16,8.19,2.8,12,1.76,4,4.77,7,7.95,9.84a54.444,54.444,0,0,0-4-9.57h0a48.41,48.41,0,0,1,4.05,9.66Zm-1.81,11.67h-.76a21.255,21.255,0,0,0-2.1-.82,41.07,41.07,0,0,0-9.59-1.64,77.329,77.329,0,0,1,8.52,2.46H403.8c-2.85-1-5.76-1.82-8.73-2.59h-.58a39.207,39.207,0,0,0,3.28,2.62h-.43c-.92-.7-1.8-1.43-2.63-2.2v-.06l-.41-.38h-.32c-.14,0-.14-.16-.05-.23a.08.08,0,0,1,0-.12l-.17-.18a.053.053,0,1,1,.07-.08l.31.28.47.09h.48a42.57,42.57,0,0,1,11.39,1.78,20.458,20.458,0,0,1,2.69,1.06Zm36.93-24.11a17.774,17.774,0,0,1-2.25.82l-.1.17a1.292,1.292,0,0,1-.09.16c-.07.11-.26,0-.19-.09l.09-.16-.25.07-.16.13c-.06,0-.11,0-.12-.06-.36.09-.72.18-1.08.24s-.25-.3,0-.34c.55-.1,1.1-.24,1.64-.39l.39-.34a.349.349,0,0,1,.05-.08s0,0,0-.05c.46-.83.9-1.67,1.33-2.51l.12.39c-.33.61-.66,1.21-1,1.8l1.22-1.1a1.123,1.123,0,0,0,.08.26c-.53.48-1.06.93-1.6,1.37l-.06.1A16.819,16.819,0,0,0,446,439a1.292,1.292,0,0,0,.1.35ZM351.56,351.7c.77-.68,1.54-1.38,2.34-2a35.883,35.883,0,0,0-3.49,3.06Zm-24.68,18c.26,5.6,2.1,12-.17,17.37-1.72,4.11-5.35,7.39-9.06,10.23-.11-.32-.21-.66-.31-1,3.16-3,6.36-6.45,7.85-9.84,2.08-4.73,1-10.18.65-15.22-.46,5.17-.79,10.69-2.93,15.39a42.59,42.59,0,0,1-5.82,8.84,1.863,1.863,0,0,0-.1-.37,43.208,43.208,0,0,0,5.46-8.16c2.28-4.74,2.54-10.23,3.11-15.45A222.649,222.649,0,0,0,316.27,392l-.09-.49c2.76-6.87,6-13.55,9.4-20.14l.06-.5c-.29.39-.58.76-.88,1.13a75.5,75.5,0,0,0-8.8,17.95,10.453,10.453,0,0,0-.12-1.11,74.26,74.26,0,0,1,7.58-15.28c-2.62,2.94-5.46,5.63-7.13,9.55-.18.42-.34.83-.5,1.25a15.4,15.4,0,0,1,.22-2.12,27.477,27.477,0,0,1,.59-2.82c2.29-3.93,5.74-6.91,9.2-9.9a.22.22,0,0,0,0-.08.11.11,0,0,1,.17-.07l.62-.54q2.49-7.05,5.44-14a61.791,61.791,0,0,1-8.35,8c.52-1,1.07-2,1.62-3,2.26-1.81,4.4-3.87,6.38-5.79a55.324,55.324,0,0,1-5.33,3.92l.19-.35c1.84-1.31,3.62-2.7,5.36-4.14-1.21.41-2.43.79-3.65,1.18.09-.17.19-.33.29-.5,1.26-.36,2.52-.7,3.76-1-1-.09-2.06-.14-3.08-.13l.1-.17a21.2,21.2,0,0,1,3.08.25l.25-.21a28.42,28.42,0,0,0-3-.6c.17-.28.33-.57.51-.85a20.485,20.485,0,0,1,2.82,1.18h0A178.48,178.48,0,0,1,351.36,320a3.588,3.588,0,0,1,.26-.27,47.485,47.485,0,0,1,4.67-3.88C343.64,332,335.42,351,326.85,369.6Zm48.78-12h-.07a.33.33,0,0,1-.13-.07c-4.91-2.81-10.07-4.81-13-10a23.59,23.59,0,0,1-2.73-8.53,80.641,80.641,0,0,1-7.48,29.9.49.49,0,0,1,.1.19c3.08,10.95-.34,20-9.29,26.63a1.089,1.089,0,0,1-.08.31c-.08.28-.49.15-.47-.12.77-9.44-1.63-20.31,8.15-25.39a147.321,147.321,0,0,0,5.22-17.93c-4.33,8.45-10.29,14-20.2,17.26a.33.33,0,0,1-.6,0,.18.18,0,0,1,0-.17h0A33.59,33.59,0,0,1,344,351.26c3.61-3.74,8.06-4.51,13-4.13a95.19,95.19,0,0,0,.18-31.88c.36-.26.73-.5,1.1-.73a100.665,100.665,0,0,1,1.68,18.23c.05.22.09.45.14.67,12.17.73,14.61,14,16.25,23.73v.06a.45.45,0,0,1-.69.52Zm-24.13,13.4v-.14l-.2.14h-.06a3.719,3.719,0,0,0-.47.34,1,1,0,0,0-.18.13c-4.43,3.32-6.43,7.76-6.62,13.47-.05,1.38,0,2.75-.08,4.1a27.3,27.3,0,0,1-.58,5.75h0c3-3.77,6.56-6.55,8-11.42a26.31,26.31,0,0,0,.19-12.34Zm-15.26-2.83c2.66-5,4.17-10.57,8.41-14.64a20.77,20.77,0,0,1,9.63-5.29c-5.38.45-8.91,2.22-12.52,7.65-2.61,3.95-4,8.01-5.52,12.31Zm0,.48a70.227,70.227,0,0,1,9.4-11.58c1.52-1.56,3.12-3,4.75-4.48-1.61,1.57-3.11,3.24-4.54,4.7a91.627,91.627,0,0,0-9,10.82c3.52-2.92,7.47-5.24,10.68-8.58a77.175,77.175,0,0,0,8.7-11.4H356a21,21,0,0,0-2.09,1.39,18.533,18.533,0,0,1,1.82-1.34,21.27,21.27,0,0,0-11.58,6.29c-3.87,4.11-5.2,9.58-8,14.31Zm20.39-20.53h-.18a82.472,82.472,0,0,1-8.42,11.32,66.777,66.777,0,0,1-11.43,9.06l-.15.21c3.58-2.06,7.54-3.73,10.7-6.33,4.54-3.69,6.82-9.15,9.47-14.23Zm16.57,6.81c.63.38,1.26.77,1.87,1.19V356c-.16-.95-.3-1.91-.44-2.87-.59-3.87-1.31-7.78-3.38-11-2.69-4.23-6.52-6.22-11-7.79v.19a.13.13,0,0,1,0,.06,2.2,2.2,0,0,1,.05.25c.11.62.22,1.23.32,1.85.58,3.57,1.11,7.09,3,10.37,2.23,3.94,5.96,5.79,9.57,8Zm12.48-25.54c-2.27,4.46-7.81,7.57-11.95,10.06a.24.24,0,0,1-.38-.2.22.22,0,0,1,0-.08c.5-9.77,2.31-19,11.36-23.81l.86-1.23c.22.14.44.3.66.47l-.23.3a.791.791,0,0,1,0,.09c1.1,4.6,1.9,10.05-.33,14.43Zm-.37-13.19a1.833,1.833,0,0,0-.07-.32.28.28,0,0,1-.19.12.36.36,0,0,1-.23,0c-4,3.18-7.1,5.87-8.54,11.25-.92,3.41-1.6,6.92-2.22,10.41l-.09.54a2.739,2.739,0,0,0-.05.28v.08a.59.59,0,0,1,0,.13l.1-.08.11-.09c3.22-2.7,6.87-5,9.43-8.32,2.98-3.98,2.79-9.23,1.74-13.97Zm-33.65,54.46-.15.34c-.11.23-.22.46-.32.7-.23,3.89-.36,7.73-1.76,11.45a55.07,55.07,0,0,1-6.1,11.4,2.3,2.3,0,0,1-.06.28,1.431,1.431,0,0,1,0,.22c0,.07-.12.05-.11,0a1.944,1.944,0,0,0,0-.24.09.09,0,0,1-.11-.1.06.06,0,0,1,0-.07c.07-.26.16-.52.23-.79.16-1.58.35-3.16.6-4.73,1-6.3,2.89-12.39,6.7-17.57.21-.31.44-.61.68-.91v-.64h.05v.58c.18-.23.35-.46.54-.69h.06c-.21.25-.41.51-.61.76v.43l.06-.11c.08-.14.16-.29.24-.42s.09.05.05.14Zm-.53,1.16c-3.11,7-5,14.36-7.56,21.55a2.635,2.635,0,0,1-.12.61,66,66,0,0,0,5.74-10.91A38.67,38.67,0,0,0,351.15,372Zm.05-.75v-.33c-.17.22-.34.45-.49.67A29.491,29.491,0,0,0,345.64,382c-.81,3.23-1.19,6.54-1.74,9.81,1-3.36,2.16-6.7,3.26-10.05a57.29,57.29,0,0,1,4-10.45.318.318,0,0,0,.04-.11ZM375.88,357l-.64-.44h-.05l-.09-.09h0v.19h-.05v-.25c-.59-.41-1.18-.83-1.76-1.26a32.71,32.71,0,0,1-7.72-7.54,38.82,38.82,0,0,1-4.83-10.83c-.23-.74-.43-1.48-.61-2.21l-.66-.28h0l.65.26v-.1c0-.11-.09-.21-.13-.31s0-.06.05,0h0s.07-.06.08,0,.13.36.19.54h.09a22.88,22.88,0,0,1,10,8.13,25.771,25.771,0,0,1,3,6.35c.43,1.3.95,2.72,1.32,4.15a13.882,13.882,0,0,1,.44,2.87v.09h0l.92.64C376.11,356.85,376,357,375.88,357Zm-15.53-22.11A82.45,82.45,0,0,0,374.84,356l.09.07c-1.41-9.18-6-17.55-14.63-21.44h-.08a.14.14,0,0,1,0,.06Zm13.82,20.64a73.15,73.15,0,0,1-13.68-20.13c1.4,4.12,2.8,8.41,5.24,12a34,34,0,0,0,8.44,8.08Zm11.15-39.3v.06l.07-.11h.06l-.12.16h0c-.27,4.09-.79,8.28-2.65,12-2,4-5.24,7.15-8.51,10.12v.17a1.778,1.778,0,0,0,0,.2h-.09a.291.291,0,0,1,0-.09.68.68,0,0,1,0-.14l-.1.09h0l.06-.06a.935.935,0,0,1,.1-.1l.09-.5-.14.32c-.08.16-.15.33-.23.49s-.07,0-.06,0c.12-.34.25-.67.38-1l.18-.48c1.52-8,4.6-15.58,10.81-21.15l.09-.09a3.246,3.246,0,0,1,.08-.88.08.08,0,0,1,.15,0,3.491,3.491,0,0,1-.05.72l.44-.4c.1-.08.23.07.14.15Zm-.19.18a36,36,0,0,0-7.09,9.51,44.126,44.126,0,0,0-3.42,10.51c1.1-2.68,2.41-5.26,3.71-7.86h0c-1.44,2.91-2.66,5.91-4,8.87-.07.31-.15.62-.22.93,2.87-2.92,5.85-5.86,7.86-9.44,2.15-3.82,2.7-8,3.08-12.27a54.112,54.112,0,0,0-5.25,8.94h0a48.618,48.618,0,0,1,5.27-9,1.648,1.648,0,0,0,.06-.24ZM328.36,452.28c-.76.7-1.51,1.4-2.29,2.07a37.129,37.129,0,0,0,3.44-3.12Zm-8.29,11h-1.38a26.553,26.553,0,0,0-.88-3l.4-2.46a22.852,22.852,0,0,1,1.86,5.41Zm24.52-29.29h0a33.47,33.47,0,0,1-8.6,18.62c-3.56,3.8-8,4.64-13,4.35-.32,2.1-.58,4.19-.76,6.3H320.5A79.75,79.75,0,0,1,327.39,435a.57.57,0,0,1-.1-.19c-3.26-10.9,0-20,8.84-26.79a1.29,1.29,0,0,1,.08-.31c.07-.27.49-.15.47.11-.61,9.46,2,20.29-7.73,25.53a147.275,147.275,0,0,0-4.91,18c4.18-8.52,10-14.2,19.9-17.59a.33.33,0,0,1,.6,0,.22.22,0,0,1,.05.18Zm-16.52-1.08v.13l.2-.15h.06a5.625,5.625,0,0,0,.48-.36.62.62,0,0,0,.19-.14c4.36-3.39,6.28-7.86,6.38-13.56v-4.14a27.344,27.344,0,0,1,.48-5.69h0c-2.91,3.83-6.45,6.66-7.79,11.55a26.51,26.51,0,0,0,0,12.31Zm-4.56,22.94a83.076,83.076,0,0,1,8.24-11.45A67,67,0,0,1,343,435.09a2.425,2.425,0,0,1,.14-.2c-3.54,2.11-7.47,3.85-10.59,6.5-4.49,3.8-6.67,9.29-9.25,14.42Zm19.88-20.38c-2.58,5.09-4,10.64-8.18,14.78a20.66,20.66,0,0,1-9.54,5.45c5.38-.54,8.87-2.37,12.39-7.86,2.55-4.01,3.87-8.09,5.33-12.42Zm.15-.62-.16.14a70.6,70.6,0,0,1-9.21,11.74c-1.49,1.58-3.07,3.08-4.66,4.55,1.57-1.6,3.05-3.28,4.45-4.78a91.528,91.528,0,0,0,8.79-11c-3.47,3-7.39,5.37-10.53,8.76a76.32,76.32,0,0,0-8.51,11.54H324a21.373,21.373,0,0,0,2.08-1.43,20,20,0,0,1-1.81,1.37,21.31,21.31,0,0,0,11.48-6.48c3.79-4.19,5.03-9.68,7.79-14.46Zm32.82.14h0c-.08.1-.35.49-.39.51-7.55,9.84-15,22.4-29,15.65h0c-1.73,4.11-3.58,8.16-5.58,12.14h-1.91c4.83-9.57,9.06-19.49,13.39-29.32a.29.29,0,0,1,0-.11c-.36-5.59-2.3-11.92-.12-17.37,2.36-5.9,8.66-10.19,13.5-13.92,0,0,.31.13.26.18.05,6.29,0,13.15-2.44,19-2.1,5.11-6.1,8.69-10.12,12.28a.191.191,0,0,0,0,.08.11.11,0,0,1-.17.07l-.61.55q-2.37,7.1-5.21,14.07c3.27-3.59,6.55-7.48,10.73-9.77,5.13-2.8,17.74-4.26,17.78-4.22s-.05.1-.11.13Zm-21.53-3.38a79.931,79.931,0,0,0,10.93-27.27A197.859,197.859,0,0,1,354,432.2v.5c.25-.39.54-.77.83-1.14Zm11.1-28.1c-3.11,4.25-6.84,8.28-9.05,13.08S354.52,426.8,354,432a255.662,255.662,0,0,0,11.93-28.54Zm.16.65A70.879,70.879,0,0,1,356.14,430c2.57-3,5.37-5.72,7-9.67,2.12-5.33,2.55-10.67,2.95-16.22Zm-12.33,28.18c.38-5.18.61-10.7,2.68-15.44,2.19-5,6.14-9.5,9.57-13.76-3.95,3.79-9.74,8.94-11.85,14-2,4.68-.82,10.12-.4,15.15Zm16.56,9.33a30.391,30.391,0,0,1-8.44,6.51,25.169,25.169,0,0,1-14.39,2.5l-.24.2c7.11,1.67,13,.77,18.55-4.3a45.654,45.654,0,0,0,4.52-4.96Zm3.21-4c-1.3,1.08-2.72,2.05-4.07,3a59.992,59.992,0,0,1-6.58,4.25,75.631,75.631,0,0,1-15.29,5.66,25.92,25.92,0,0,0,15.14-3.11c4.27-2.47,7.53-6.21,10.8-9.84Zm2-2.35c-5,1.5-9.95,2-14.86,4.31-4.53,2.18-8.76,6.36-12.44,10.05a57.477,57.477,0,0,1,7.06-5.16s.06,0,0,0c-2.54,1.78-4.94,3.68-7.3,5.68,5-1.77,10.1-3,14.76-5.55a54.25,54.25,0,0,0,12.12-8.73c-6.2,2.55-12.76,3.65-18.32,7.77h0c5.36-4.1,12.41-6.2,18.8-8.24Zm-39.31-26.21c-.07.27-.15.53-.22.8-.12,1.56-.29,3.12-.51,4.67-.88,6.32-2.67,12.45-6.38,17.7-.22.32-.45.63-.69.94v.64h0v-.58c-.18.23-.35.47-.54.7h-.06c.21-.25.41-.51.6-.77v-.43l-.06.11-.23.43c-.05.09-.18,0-.14-.09a3.086,3.086,0,0,0,.14-.32c.11-.24.22-.48.32-.72.16-3.9.23-7.73,1.56-11.48a55.57,55.57,0,0,1,5.91-11.5,2.306,2.306,0,0,1,.06-.28,1.431,1.431,0,0,1,0-.22c0-.07.11-.05.11,0a1.937,1.937,0,0,0,0,.24.09.09,0,0,1,.11.1l-.01.02Zm-.82,3c-1,3.38-2.06,6.74-3.1,10.1-1.1,3.55-2.08,7.23-3.86,10.51v.46c.17-.23.34-.46.49-.69a29.561,29.561,0,0,0,4.9-10.54c.71-3.32,1.04-6.64,1.54-9.95Zm.27-1.68a3.365,3.365,0,0,1,.11-.62,65.646,65.646,0,0,0-5.55,11A38.459,38.459,0,0,0,328.44,432c2.99-7,4.78-14.43,7.2-21.65ZM318,463.22h-.36c-.06-.18-.14-.35-.21-.53l.09-.6C317.69,462.47,317.85,462.84,318,463.22Z" opacity="0.1"/>
      <path id="Path_175" data-name="Path 175" d="M349.09,408.09a125.252,125.252,0,0,1,18.06,3c2.94.76,5.83,1.65,8.71,2.6,1.44.47,2.89.9,4.34,1.31a19.389,19.389,0,0,0,4.65.88.11.11,0,0,1,0,.22,33.477,33.477,0,0,1-4.48-.08,32.463,32.463,0,0,1-4.27-.81c-3-.74-6-1.61-8.93-2.38-6-1.55-12-3.1-18.15-4.21a.267.267,0,0,1,.07-.53Z" fill="#263238"/>
      <path id="Path_176" data-name="Path 176" d="M334.06,413.49a133.227,133.227,0,0,1,15.08-.73c2.53,0,5,.21,7.54.45,1.2.12,2.39.25,3.59.41s2.6.51,3.92.66c.14,0,.14.23,0,.22-1.25-.11-2.52,0-3.77,0l-3.76-.1c-2.51-.06-5-.1-7.54-.18-5-.17-10-.29-15.07-.29A.221.221,0,0,1,334.06,413.49Z" fill="#263238"/>
      <path id="Path_177" data-name="Path 177" d="M399.24,327.11c33.91,43.21,72.4,123.53,61.55,139.09-12.09,17.33-60.22-37-58.25-39.51,1.67-2.15-12.73-54.13-22.88-91.87S390.86,316.42,399.24,327.11Z" fill="#eb9481"/>
      <path id="Path_178" data-name="Path 178" d="M440.89,379l-55.09,4.54s-9.83-39.72-10.46-61.3c-.35-12.1,6.71-11.92,14.93-4.72C419,342.75,440.89,379,440.89,379Z" fill="#f0b976"/>
      <path id="Path_179" data-name="Path 179" d="M419,355.85s-.13-.49-.16-.62h0c0-.06,0-.08-.1,0s-6.66,10.84-7.6,16.61a31.121,31.121,0,0,0,.28,9.66l1.11-.09a37.42,37.42,0,0,1,.3-10.88c1.16-5.33,3.88-9.53,5.75-14.37v.24c-2.33,6.29-5,13.14-5.07,19.89h0c.17-6.93,3.34-12.77,5.15-19.23a54.821,54.821,0,0,1-.57,14.93,53.939,53.939,0,0,1-2.62,9.17h.43a55.724,55.724,0,0,0,2.46-9.1,58.1,58.1,0,0,0,.7-7.8c.07-1.66.17-3.38.12-5.08.85,4.82,1.79,9.74,1.11,14.57a23.379,23.379,0,0,1-2.27,7.23h.19a27.7,27.7,0,0,0,2.08-6.13,30.591,30.591,0,0,0,.06-10.67,46,46,0,0,1,1.09,6.59,18.29,18.29,0,0,1-1.85,10.09l1.77-.14C424.45,373.49,421.19,364.27,419,355.85Zm-5.63,21.87c-.13,1.19-.22,2.38-.27,3.58h.22c0-1.18.05-2.36.11-3.55.01-.06-.05-.07-.05-.03Zm-9-4.24a4.409,4.409,0,0,0-.05-.81.11.11,0,0,0,0-.18l-.06-.06c-.35-5.37-.72-10.73-3.45-15.53-3.15-5.54-8.52-9.81-13.51-13.64,0-.07-.32.08-.3.1,0,6.11-.53,13.71,2.67,19.2,3,5.07,9.14,7.44,13.77,10.59a.126.126,0,0,1,.1.05l4.59,8.51,1.34-.11q-2.47-4.12-5.12-8.12Zm-5.19-16.82c2.12,3.69,2.56,7.57,3.33,11.44a70.77,70.77,0,0,0-14.28-23.76c4.12,3.73,8.08,7.37,10.93,12.32Zm-8.08,5c-2.66-4.75-3.15-12.49-3.71-17.94,1.24,5.33,2.34,11.19,4.95,16,2.47,4.55,6.67,8.13,10.52,11.62-4.24-2.71-9.25-5.12-11.78-9.63Zm-3.47-17.64A255.72,255.72,0,0,1,402.81,371c-3.83-3.6-8-7.11-10.46-11.78s-3.35-10.09-4.74-15.15Zm15.33,27.07a199.84,199.84,0,0,0-14.78-26.43,80.24,80.24,0,0,1,14.77,25.4c.11.46.24.92.37,1.37Zm-2,11.16a25.631,25.631,0,0,0-2.43-2.65h0a.24.24,0,0,0-.17-.06.33.33,0,0,0-.35.48c-.3.86-.56,1.71-.79,2.55l1-.08c.06-.4.11-.79.16-1.19a1.087,1.087,0,0,0,.07.24,5.8,5.8,0,0,1-.05.93h.21v-.45a1.835,1.835,0,0,0,.13.44h.27c-.14-.42-.29-.84-.45-1.25V381c.2.49.41,1,.64,1.45h.21c-.16-.31-.31-.62-.46-.93l.61.92Zm-16-2.39c.32,1.37.57,2.4.72,3,.12.2.23.4.33.61l1.34-.11a16.381,16.381,0,0,0-2.42-3.45Zm1.14-64.79a.784.784,0,0,0,0-.09c.11-.14.23-.29.33-.44-.23-.15-.47-.29-.7-.42l-.92,1.32a19.11,19.11,0,0,0-9.19,10.84c.07,1,.15,2,.25,3,.16-.66.32-1.31.5-2,1.44-5.38,4.53-8.07,8.54-11.25a.36.36,0,0,0,.23,0,.28.28,0,0,0,.19-.12,1.833,1.833,0,0,0,.07.32c1.05,4.74,1.24,10-1.79,14a35.441,35.441,0,0,1-6.91,6.3c.05.38.1.76.16,1.15,3.49-2.17,7.17-4.8,8.91-8.23,2.16-4.31,1.36-9.76.3-14.33Zm-.15.51c.09-.08,0-.23-.14-.15l-.44.4a3.491,3.491,0,0,1,.05-.72.08.08,0,0,0-.15,0c0,.29-.05.58-.08.88l-.09.09a32.84,32.84,0,0,0-9.14,14.58v.39a31.441,31.441,0,0,1,2.07-5.23,36,36,0,0,1,7.09-9.51v.16a48.622,48.622,0,0,0-5.27,9h0a54.112,54.112,0,0,1,5.25-8.94c-.38,4.26-.93,8.45-3.08,12.27a35.591,35.591,0,0,1-5.49,7,2.514,2.514,0,0,0,0,.27,29.809,29.809,0,0,0,6.08-7.85c1.86-3.69,2.38-7.88,2.65-12h0l.12-.16s0-.07-.06,0l-.07.11v-.06Zm-7.59,12.89c-.73,1.46-1.46,2.91-2.16,4.38v.35c.69-1.58,1.39-3.16,2.16-4.71.02.03-.02,0-.03.03Z" opacity="0.1"/>
      <path id="Path_180" data-name="Path 180" d="M387,374.71c8.42-1.4,31.36-4.55,46.53-4.64.09,0,.13.35,0,.36-12.61,2-38,4.13-46.51,4.79C386.91,375.24,386.85,374.73,387,374.71Z" fill="#263238"/>
      <path id="Path_181" data-name="Path 181" d="M392.51,383q-3.37,0-6.74.14l.43.32c-1-6.07-2.27-12.08-3.63-18.07s-2.86-12-4.65-17.86c.84,6.1,2,12.14,3.23,18.16s2.66,12,4.25,17.95l.09.37.34-.05C388.06,383.68,390.29,383.37,392.51,383Z" fill="#263238"/>
      <path id="Path_182" data-name="Path 182" d="M380.38,359.56a16.84,16.84,0,0,0-1.52-3.6,24.617,24.617,0,0,0-2.15-3.28,7,7,0,0,0,.46,1.93,11.484,11.484,0,0,0,.82,1.78,12.53,12.53,0,0,0,2.39,3.17Z" fill="#263238"/>
      <path id="Path_183" data-name="Path 183" d="M377.24,318.15c-.29,2.61-10.45,20.52-22.1,21.35-3.8.26-6.16-20.42-6.16-20.42l-.53-1.49-7.31-20.82,23.19-19.08,3.37-2.57s1.62,5.83,3.57,13.11c.1.34.19.67.28,1s.24.79.34,1.18c.3,1.08.61,2.19.89,3.3.22.84.44,1.66.63,2.55s.42,1.77.64,2.66C376,307.8,377.35,317.05,377.24,318.15Z" fill="#eb9481"/>
      <path id="Path_184" data-name="Path 184" d="M371.27,288.23a44.2,44.2,0,0,1-22.82,29.36l-7.31-20.82,23.19-19.08,3.37-2.57S369.32,281,371.27,288.23Z" fill="#263238"/>
      <path id="Path_185" data-name="Path 185" d="M373.47,279a8.16,8.16,0,0,1,1.54,2.78c1.47,4.63-.6,9.39-3.2,13.16-2.79,4-6.71,7.67-8.06,12.49a8.08,8.08,0,0,0,.24,5.75c1,2,3,3,5.05,3.59s4.87.88,6.35,2.81a6.32,6.32,0,0,1,.62,5.69c-1.48,4.79-6.64,7.29-9.71,11a25.44,25.44,0,0,0-5.86,13.83,24.69,24.69,0,0,0,2.75,13.81,24.21,24.21,0,0,0,4.05,5.67c1.81,1.86,4,3.3,5.89,5.07s3.41,3.87,3.34,6.4c0,1.95-4,8-12.29,11-.59.21-.17,1.27.51,1.27a31.879,31.879,0,0,0,3.91-.17,34,34,0,0,0,26-16.88,35.41,35.41,0,0,0,4.52-16.5c.08-3.21-.1-6.46.52-9.63a17.81,17.81,0,0,1,3.67-7.55c3.37-4.25,7.73-7.65,10.36-12.48a29.8,29.8,0,0,0,3.44-14.15,35.23,35.23,0,0,0-12.5-26.54C396.93,282.79,373.09,278.54,373.47,279Z" fill="#263238"/>
      <path id="Path_186" data-name="Path 186" d="M373.68,279.26a13.76,13.76,0,0,1,2.41,5.77,11.41,11.41,0,0,1-.82,5.6c-1.58,4-4.62,7-7.53,10-2.73,2.85-5.48,6-6.11,10.05a9.33,9.33,0,0,0,.54,5.15,7.26,7.26,0,0,0,4.13,3.71c3.28,1.33,7.85,2,9.11,5.87s-1.92,7.41-4.17,10.05c-5.49,6.45-13.57,14-11.39,23.43,1.11,4.77,4.24,9.24,7.43,12.86,2.3,2.62,5.24,5.9,4.62,9.67,0,.14-.23.07-.21-.06.59-4-2.92-6.78-5.39-9.35a33.27,33.27,0,0,1-7-10.5,16.16,16.16,0,0,1,.25-12.24c1.64-4.05,4.38-7.44,7.26-10.67,1.48-1.66,3-3.29,4.42-5a13.67,13.67,0,0,0,3.09-5.17,4.72,4.72,0,0,0-2-5.23c-1.73-1.19-3.78-1.64-5.72-2.37a9.49,9.49,0,0,1-4.48-3.05,8.71,8.71,0,0,1-1.6-4.14,13.72,13.72,0,0,1,2.73-9.52c2.78-3.9,6.78-6.77,9.49-10.72a13.76,13.76,0,0,0,2.64-6.83c.15-2.61-1-4.8-2.12-7.06a.26.26,0,0,1,.42-.25Z" fill="#263238"/>
      <path id="Path_187" data-name="Path 187" d="M409.05,289.3c7.92,6.55,11,17.39,9.2,27.3a35.53,35.53,0,0,1-6.94,15.16c-3.19,4.16-7,8-9.28,12.79-2.49,5.32-1.62,11.06-1.61,16.73a31.65,31.65,0,0,1-2.86,13.27,33.78,33.78,0,0,1-18.88,17.51,29.812,29.812,0,0,1-3.21,1,.11.11,0,1,1-.05-.21c8.57-2.28,15.73-8.59,19.84-16.36a31.75,31.75,0,0,0,3.62-12.36c.41-5.34-.76-10.73.35-16,1-5,4.27-9.05,7.45-12.85,3.48-4.15,6.88-8.26,8.81-13.39,3.59-9.52,2.35-20.68-4.26-28.61-7.38-8.85-19.07-11.49-30-12.6l-4.39-.43c-.16,0-.17-.27,0-.26C388,280.56,400.1,281.9,409.05,289.3Z" fill="#263238"/>
      <path id="Path_188" data-name="Path 188" d="M375.64,273.3c1.7.38,3.56,2.13,3.59,3.3s-5.47,8.38-7.72,8.56-3.18-3.89-3.18-3.89Z" fill="#ffc727"/>
      <path id="Path_189" data-name="Path 189" d="M306.52,269c4.07,38.51,27.58,40.44,35.87,39.56,7.53-.8,33.07-4.47,33-43.2s-19.24-49-36.56-48.1S302.45,230.5,306.52,269Z" fill="#eb9481"/>
      <path id="Path_190" data-name="Path 190" d="M310.76,264.86a24,24,0,0,0,2.49-.94,4.23,4.23,0,0,0,2.35-1.43,1.37,1.37,0,0,0-.25-1.65,3.39,3.39,0,0,0-3.43-.28,5,5,0,0,0-2.83,2.21,1.46,1.46,0,0,0,1.67,2.09Z" fill="#263238"/>
      <path id="Path_191" data-name="Path 191" d="M336.84,260.8a26.177,26.177,0,0,1-2.66-.15,4.33,4.33,0,0,1-2.68-.67,1.38,1.38,0,0,1-.24-1.66,3.4,3.4,0,0,1,3.18-1.29,5,5,0,0,1,3.36,1.28,1.46,1.46,0,0,1-.96,2.49Z" fill="#263238"/>
      <path id="Path_192" data-name="Path 192" d="M332.23,271.05c0-.1.22.1.23.21.25,2.61,1,5.55,3.44,6.11.08,0,.09.15,0,.15C333,277.49,332.05,273.57,332.23,271.05Z" fill="#263238"/>
      <path id="Path_193" data-name="Path 193" d="M334.2,268c4.14-.86,5.55,7.48,1.71,8.28S330.73,268.76,334.2,268Z" fill="#263238"/>
      <path id="Path_194" data-name="Path 194" d="M335.91,268.2c.81.35,1.67,1.07,2.56,1s1.65-1.07,2.18-2c.05-.1.13,0,.15.07.3,1.6,0,3.34-1.71,3.87s-2.89-.75-3.56-2.29C335.41,268.55,335.59,268.06,335.91,268.2Z" fill="#263238"/>
      <path id="Path_195" data-name="Path 195" d="M317.78,272.93c0-.09-.18.16-.16.26.54,2.57.72,5.6-1.46,6.87-.07,0,0,.17,0,.14C319,279.29,318.7,275.28,317.78,272.93Z" fill="#263238"/>
      <path id="Path_196" data-name="Path 196" d="M315,270.64c-4.21.42-3.06,8.8.83,8.42S318.52,270.29,315,270.64Z" fill="#263238"/>
      <path id="Path_197" data-name="Path 197" d="M313.33,271.43c-.61.54-1.15,1.43-1.94,1.6s-1.71-.63-2.41-1.42c-.07-.08-.13,0-.12.11.18,1.6.94,3.2,2.52,3.3s2.28-1.43,2.44-3.08C313.86,271.64,313.57,271.22,313.33,271.43Z" fill="#263238"/>
      <path id="Path_198" data-name="Path 198" d="M338.09,290c-.42.77-.77,1.77-1.65,2.13a7,7,0,0,1-2.89.2c-.08,0-.14.11-.06.16a3.52,3.52,0,0,0,3.59.38,2.79,2.79,0,0,0,1.28-2.83C338.36,289.9,338.15,289.91,338.09,290Z" fill="#263238"/>
      <path id="Path_199" data-name="Path 199" d="M325.25,284.23s.42,3.93.87,5.72c0,.17.49.14,1.11,0h.07a8.79,8.79,0,0,0,7.48-5.25c.08-.21-.2-.33-.33-.18a13.28,13.28,0,0,1-7.22,4.17c-.25-.47-.5-6.75-.79-6.7a16.071,16.071,0,0,0-3.84,1.93c-1.12-8.15-.92-16.42-2.15-24.53a.25.25,0,0,0-.5,0c-.82,8.65.26,18.07,1.2,26.52C321.26,287,324.61,284.71,325.25,284.23Z" fill="#263238"/>
      <path id="Path_200" data-name="Path 200" d="M321.53,231.36s.12,6.09,3.22,9.63c6.38,7.28,15.85,2.21,20.24,4.56,4.11,2.2,4.81,9,8.62,11.28,5.28,3.17,10.32-.07,11.81,2.65s5.92,8.83,9.95,9,5.17-64.45-44.43-51a33.92,33.92,0,0,0-16,8.1c-9.55,9.11-9.09,31.23-9.09,31.23s.16-.33,1.4-2.26c1.75-2.72,2.11-4.88,3.43-6.7,2.09-2.86,3.79-2.48,6-5.32C320,238.13,321.53,231.36,321.53,231.36Z" fill="#263238"/>
      <path id="Path_201" data-name="Path 201" d="M321.51,228.47a34,34,0,0,0,.69,7.81,14.08,14.08,0,0,0,3.06,6.91A10.37,10.37,0,0,0,332,246c2.53.2,5.13-.27,7.88,0a7.78,7.78,0,0,1,3.92,1.52,10.58,10.58,0,0,1,2.47,3.33c1.21,2.34,2.43,4.64,4.57,5.95a8.64,8.64,0,0,0,7.24.89c2.43-.68,4.92-2.13,7.6-1.73-2.7-.18-4.94,1.4-7.42,2.31a9.38,9.38,0,0,1-7.9-.65c-2.52-1.35-3.85-4-5.07-6.23a9.41,9.41,0,0,0-2.23-2.94,6.61,6.61,0,0,0-3.33-1.22c-2.48-.31-5.12.12-7.82-.12a13.41,13.41,0,0,1-4-.92,8.18,8.18,0,0,1-3.41-2.32,14.86,14.86,0,0,1-2.95-7.46,33.767,33.767,0,0,1-.04-7.94Z" fill="#263238"/>
      <path id="Path_202" data-name="Path 202" d="M321.21,230.94a27.489,27.489,0,0,1-.45,7.34,12.87,12.87,0,0,1-3.33,6.71,18,18,0,0,1-3,2.25,5.91,5.91,0,0,0-2.11,2.49,19,19,0,0,1-1.29,3.46,8.15,8.15,0,0,1-2.56,2.66,9,9,0,0,0,2-2.93,18.079,18.079,0,0,0,.93-3.48,6.3,6.3,0,0,1,2.32-3.13,20.781,20.781,0,0,0,2.79-2.18,13.75,13.75,0,0,0,3.23-6.09,53.421,53.421,0,0,0,1.47-7.1Z" fill="#263238"/>
      <path id="Path_203" data-name="Path 203" d="M368.79,269s6-13.47,11.94-11.55,3.06,20.32-2.8,23.9a6.54,6.54,0,0,1-9.28-1.79Z" fill="#eb9481"/>
      <path id="Path_204" data-name="Path 204" d="M379.77,262.68c.1,0,.14.11.06.16-4.08,2.65-5.61,7.21-6.41,11.79,1-1.9,2.61-3.14,5.11-2,.13.06.06.26-.07.26a4,4,0,0,0-4.08,2.22A19.35,19.35,0,0,0,373,279c-.13.43-.89.36-.82-.13v-.1C371,273.18,373.82,264.42,379.77,262.68Z" fill="#263238"/>
      <path id="Path_205" data-name="Path 205" d="M460.06,467.6c-13,7.84-56.75,2.74-115.28-10.57-8.1-1.84,11.22-58,20-56.45,11,1.92,53.37,11.75,56.38,12.86C446.49,422.8,468.85,462.28,460.06,467.6Z" fill="#eb9481"/>
      <path id="Path_206" data-name="Path 206" d="M379.7,406.06s-3.52-1.3-21-11.19c-12.08-6.84-45.89-15.77-76.16,8.84-11.6,9.44-10.05,21.69,3.74,14,9.71-5.4,16-10,19.64-10.84,0,0-6.49,15.72-1.24,24.06A183.329,183.329,0,0,0,320,451.79a38.7,38.7,0,0,0,4.15-2.51A20.73,20.73,0,0,0,344.78,457Z" fill="#eb9481"/>
      <path id="Path_207" data-name="Path 207" d="M346.13,390.19C339,391.65,324,395,312.59,402c-12.62,7.8-34.82,26.25-29,35.5,4.29,6.79,13.39.49,13.39.49s-7.57,9.56-2.35,14.84c4.76,4.82,11.51-.48,11.51-.48s-3.6,6.59,1.88,10.34c6.58,4.52,13-10,23.66-11.22C334.11,451.24,346.13,390.19,346.13,390.19Z" fill="#eb9481"/>
      <path id="Path_208" data-name="Path 208" d="M323.06,414c-6.47,2.48-19.74,11.88-26.06,23.74-.14.26,0,.52.17.3a145.649,145.649,0,0,1,26-23.92C323.2,414.07,323.14,414,323.06,414Z" fill="#263238"/>
      <path id="Path_209" data-name="Path 209" d="M330.58,427c-5.37,2.71-18.62,13-24.6,25.24-.14.28,0,.52.18.3a155.192,155.192,0,0,1,24.5-25.42C330.72,427,330.64,426.93,330.58,427Z" fill="#263238"/>
      <path id="Path_210" data-name="Path 210" d="M306.16,452.5a12.771,12.771,0,0,1-6.74,2.35,6.79,6.79,0,0,1-6.06-3.49,7.28,7.28,0,0,1-.72-3.59,13.689,13.689,0,0,1,.76-3.58,22.439,22.439,0,0,1,3.55-6.35l.39.43A17.351,17.351,0,0,1,291,441a8.26,8.26,0,0,1-3.5,0,6.45,6.45,0,0,1-3.07-1.78,7.48,7.48,0,0,1-1.78-3.07,8.759,8.759,0,0,1-.2-3.53,17.291,17.291,0,0,1,2.56-6.42,31.318,31.318,0,0,1,4.3-5.35c1.57-1.63,3.19-3.22,4.83-4.78a125.339,125.339,0,0,1,10.26-9l.49.85a99.447,99.447,0,0,0-9.7,5,50.154,50.154,0,0,0-4.54,3,32.4,32.4,0,0,1-4.76,2.88,19.369,19.369,0,0,1-5.3,1.78,8.51,8.51,0,0,1-2.89,0,4.23,4.23,0,0,1-2.54-1.55,4.73,4.73,0,0,1-.95-2.8,8,8,0,0,1,.47-2.84,17.5,17.5,0,0,1,2.75-4.86,37.87,37.87,0,0,1,8.13-7.46,78.828,78.828,0,0,1,9.38-5.72,64.429,64.429,0,0,1,20.78-6.77,64.24,64.24,0,0,0-20.54,7.21,78.346,78.346,0,0,0-9.25,5.8,37.2,37.2,0,0,0-7.87,7.41,16.519,16.519,0,0,0-2.57,4.66c-.58,1.63-.67,3.54.36,4.83s2.9,1.5,4.6,1.23a18,18,0,0,0,5-1.72,30.922,30.922,0,0,0,4.6-2.81,54,54,0,0,1,4.61-3.05,89.621,89.621,0,0,1,9.8-5l4-1.77L305,407.84a128.745,128.745,0,0,0-10.2,8.83q-2.46,2.32-4.82,4.74a29.889,29.889,0,0,0-4.21,5.19,16.35,16.35,0,0,0-2.46,6.07,8,8,0,0,0,.14,3.19,6.58,6.58,0,0,0,1.55,2.76,5.73,5.73,0,0,0,2.69,1.61,7.59,7.59,0,0,0,3.22.07,16.72,16.72,0,0,0,6.1-2.51l1.55-1-1.16,1.42a22.461,22.461,0,0,0-3.53,6.14,13.57,13.57,0,0,0-.81,3.44,6.87,6.87,0,0,0,.61,3.41,6.55,6.55,0,0,0,5.76,3.48,12.711,12.711,0,0,0,6.73-2.18Z" fill="#263238"/>
      <path id="Path_211" data-name="Path 211" d="M441.59,428.86c-2-2.25-7.79-9.37-17-14-8.06-4-19.53-6.17-25.51-6.89-.15,0-.22.15-.07.2,5.16,1.76,15.67,4,24.3,8.16A76.061,76.061,0,0,1,441.43,429C441.53,429.09,441.68,429,441.59,428.86Z" fill="#263238"/>
    </g>
    <g id="freepik--speech-bubble--inject-25">
      <path id="Path_212" data-name="Path 212" d="M224.57,243.39a36.29,36.29,0,0,0,57.93,29.15l17.78,4.54-7.4-16.56a36.3,36.3,0,1,0-68.31-17.13Z" fill="#fff"/>
      <path id="Path_213" data-name="Path 213" d="M224.57,243.39a36.55,36.55,0,0,0,5.47,19,40,40,0,0,0,2.89,4.07,40.7,40.7,0,0,0,3.48,3.59c.64.54,1.2,1.16,1.89,1.64l2,1.48c.67.5,1.42.88,2.12,1.32l1.07.64c.37.21.75.37,1.13.55.75.35,1.5.72,2.26,1.06l2.34.85a18.251,18.251,0,0,0,2.4.69c.81.19,1.6.45,2.42.56a34.53,34.53,0,0,0,4.95.54,29.567,29.567,0,0,0,5-.07,36.12,36.12,0,0,0,9.66-2.25,36.859,36.859,0,0,0,8.65-4.82l.13-.1h.17l17.8,4.46-.51.61-7.44-16.55-.1-.21.12-.21a35.94,35.94,0,0,0,1.19-31.41,37.41,37.41,0,0,0-9.65-13,35.88,35.88,0,0,0-14.37-7.44,36.016,36.016,0,0,0-45.06,34.91Zm0,0a36.542,36.542,0,1,1,73.06,1.43,36.081,36.081,0,0,1-4.33,16v-.43l7.36,16.58.37.83-.88-.23-17.76-4.62.3-.06a36.32,36.32,0,0,1-18.69,7,32.626,32.626,0,0,1-5,0,36.552,36.552,0,0,1-5-.61c-.83-.12-1.63-.4-2.45-.59a20.116,20.116,0,0,1-2.4-.73l-2.36-.88c-.76-.35-1.51-.74-2.26-1.1-.37-.19-.76-.36-1.12-.56l-1.07-.66c-.71-.46-1.45-.85-2.12-1.35l-2-1.52a22.658,22.658,0,0,1-1.89-1.64,41,41,0,0,1-3.48-3.62,42.006,42.006,0,0,1-2.88-4.11A36.48,36.48,0,0,1,224.57,243.39Z" fill="#263238"/>
      <path id="Path_214" data-name="Path 214" d="M244.12,226.87a11.92,11.92,0,1,0,8.435-3.5,11.93,11.93,0,0,0-8.435,3.5Zm2.42,2.43a2.23,2.23,0,1,1-.656,1.58,2.23,2.23,0,0,1,.656-1.58Z" fill="rgba(52,88,137,0.98)"/>
      <rect id="Rectangle_27" data-name="Rectangle 27" width="3.61" height="10.95" transform="translate(257.424 247.936) rotate(-135)" fill="#295087"/>
      <path id="Path_215" data-name="Path 215" d="M263.94,241.42l-5.25,5.25,1.29,1.29,2.17-.67-.67,2.17,2.13,2.13,2.89-.59-.6,2.88.48.48,2.17-.67-.67,2.17,2.18-.67-.68,2.18,1.7,1.69,2.88-.6-.6,2.88,1.48,1.48,5.85.59-.6-5.84Z" fill="#ebebeb"/>
      <rect id="Rectangle_28" data-name="Rectangle 28" width="21.28" height="0.51" transform="translate(277.066 259.842) rotate(-135)" fill="#dbdbdb"/>
      <path id="Path_216" data-name="Path 216" d="M242.18,235.31a10.42,10.42,0,0,0,3.06,7.31,10.25,10.25,0,1,0,0-14.62,10.42,10.42,0,0,0-3.06,7.31Zm0,0a10.49,10.49,0,1,1,6.5,9.7,10.48,10.48,0,0,1-6.5-9.7Z" opacity="0.1"/>
    </g>
    <g id="freepik--Device--inject-25">
      <rect id="Rectangle_29" data-name="Rectangle 29" width="134.27" height="6.02" transform="translate(234.13 459.24)" fill="#455a64"/>
      <rect id="Rectangle_30" data-name="Rectangle 30" width="67.58" height="6.02" transform="translate(234.13 459.24)" fill="#37474f"/>
      <path id="Path_217" data-name="Path 217" d="M297.61,465.25H166.75l-17.1-88.87H280.5Z" fill="#37474f"/>
      <path id="Path_218" data-name="Path 218" d="M292.29,465.25H161.43l-17.11-88.87H275.18Z" fill="#455a64"/>
      <path id="Path_219" data-name="Path 219" d="M226.27,420.82a7.19,7.19,0,0,1-7.27,8,8.86,8.86,0,0,1-8.66-8,7.18,7.18,0,0,1,7.27-8,8.87,8.87,0,0,1,8.66,8Z" fill="#fff"/>
    </g>
  </g>
</svg>
